<svg width="696" height="682" viewBox="0 0 696 682" fill="none" xmlns="http://www.w3.org/2000/svg">
  
  <path d="M24.0473 168.082C20.7075 157.553 26.5352 146.31 37.0638 142.97L408.809 25.0474C419.337 21.7075 430.58 27.5352 433.92 38.0639L571.194 470.813C574.534 481.341 568.706 492.584 558.178 495.924L186.433 613.847C175.904 617.187 164.662 611.359 161.322 600.831L24.0473 168.082Z"
    fill="<%= color.background.primary.hcValue %>"
    stroke="<%= color.border.primary.hcValue %>"
    stroke-width="<%= size.border.width.large.value %>"/>
  
  <path d="M435.146 167.174H260.636C256.66 167.179 252.847 168.761 250.035 171.573C247.223 174.385 245.641 178.197 245.636 182.174V570.024L243.636 570.634L200.826 583.744C198.797 584.363 196.606 584.151 194.733 583.155C192.86 582.16 191.459 580.462 190.837 578.434L63.4962 162.484C62.8765 160.455 63.0877 158.263 64.0834 156.39C65.0791 154.517 66.7778 153.115 68.8062 152.494L134.776 132.294L326.026 73.7539L391.996 53.5539C393 53.2449 394.055 53.1369 395.101 53.2362C396.147 53.3354 397.162 53.6398 398.09 54.1321C399.018 54.6244 399.84 55.2948 400.509 56.1051C401.177 56.9153 401.679 57.8494 401.986 58.8539L434.536 165.174L435.146 167.174Z"
    fill="<%= color.background.secondary.hcValue %>"/>
  
  <rect x="243" y="164" width="428" height="492" rx="19"
    fill="<%= color.background.primary.hcValue %>"
    stroke="<%= color.border.primary.hcValue %>"
    stroke-width="<%= size.border.width.large.value %>"/>
  
  <path d="M146.681 152.821C144.754 152.819 142.877 152.2 141.327 151.055C139.778 149.909 138.636 148.296 138.07 146.454L125.189 104.382C124.843 103.252 124.723 102.065 124.836 100.888C124.949 99.7118 125.292 98.569 125.846 97.5252C126.401 96.4814 127.156 95.5571 128.067 94.805C128.979 94.053 130.03 93.4879 131.16 93.142L307.099 39.2782C309.382 38.5818 311.847 38.8193 313.955 39.9387C316.062 41.0581 317.639 42.9679 318.34 45.2489L331.221 87.3212C331.917 89.6036 331.679 92.0689 330.559 94.1762C329.44 96.2835 327.531 97.8607 325.25 98.5619L149.31 152.426C148.458 152.687 147.572 152.82 146.681 152.821Z"
    fill="<%= color.brand.secondary.base.hcValue %>"/>

  <path d="M214.154 69.9546C225.199 69.9546 234.154 61.0003 234.154 49.9546C234.154 38.9089 225.199 29.9546 214.154 29.9546C203.108 29.9546 194.154 38.9089 194.154 49.9546C194.154 61.0003 203.108 69.9546 214.154 69.9546Z"
    fill="<%= color.brand.secondary.base.hcValue %>"/>

  <path d="M214.154 62.6193C221.148 62.6193 226.818 56.9491 226.818 49.9547C226.818 42.9602 221.148 37.29 214.154 37.29C207.159 37.29 201.489 42.9602 201.489 49.9547C201.489 56.9491 207.159 62.6193 214.154 62.6193Z"
    fill="<%= color.background.primary.hcValue %>"/>

  <path d="M626.636 607.174H288.636C286.383 607.171 284.222 606.275 282.629 604.681C281.035 603.088 280.139 600.927 280.136 598.674V193.674C280.139 191.42 281.035 189.26 282.629 187.666C284.222 186.073 286.383 185.176 288.636 185.174H626.636C628.89 185.176 631.05 186.073 632.644 187.666C634.237 189.26 635.134 191.42 635.136 193.674V598.674C635.134 600.927 634.237 603.088 632.644 604.681C631.05 606.275 628.89 607.171 626.636 607.174Z"
    fill="<%= color.background.secondary.hcValue %>"/>
    
  <path d="M549.636 209.174H365.636C363.25 209.171 360.963 208.222 359.275 206.535C357.588 204.848 356.639 202.56 356.636 200.174V156.174C356.639 153.788 357.588 151.5 359.276 149.813C360.963 148.126 363.25 147.177 365.636 147.174H549.636C552.023 147.177 554.31 148.126 555.997 149.813C557.685 151.5 558.634 153.788 558.636 156.174V200.174C558.634 202.56 557.685 204.848 555.997 206.535C554.31 208.222 552.023 209.171 549.636 209.174Z"
    fill="<%= color.brand.primary.base.hcValue %>"/>

  <path d="M457.636 150.174C468.682 150.174 477.636 141.22 477.636 130.174C477.636 119.128 468.682 110.174 457.636 110.174C446.591 110.174 437.636 119.128 437.636 130.174C437.636 141.22 446.591 150.174 457.636 150.174Z"
    fill="<%= color.brand.primary.base.hcValue %>"/>
  
  <path d="M457.636 142.356C464.364 142.356 469.818 136.902 469.818 130.174C469.818 123.446 464.364 117.992 457.636 117.992C450.908 117.992 445.454 123.446 445.454 130.174C445.454 136.902 450.908 142.356 457.636 142.356Z"
    fill="<%= color.background.primary.hcValue %>"/>
</svg>
