<svg width="800" height="700" viewBox="0 0 800 700" fill="none" xmlns="http://www.w3.org/2000/svg">
  <path d="M41.2055 99.1114L41.2033 99.112C31.8949 101.524 23.9231 107.529 19.037 115.811C14.1509 124.093 12.7495 133.975 15.1402 143.288L15.1408 143.291L125.482 571.168L125.482 571.17C127.894 580.479 133.899 588.45 142.181 593.336C150.463 598.222 160.345 599.624 169.659 597.233L169.661 597.232L169.727 597.216L169.727 597.215L533.992 503.279L533.993 503.279L534.059 503.262L534.06 503.261C543.369 500.85 551.34 494.844 556.226 486.562C561.112 478.28 562.514 468.399 560.123 459.085L560.122 459.083L449.781 31.2054L449.781 31.2033C447.369 21.8949 441.364 13.9232 433.082 9.03713C424.8 4.15103 414.919 2.74953 405.605 5.1401L406.102 7.0773L405.603 5.14066L375.463 12.913L71.3445 91.3392L41.2055 99.1114Z"
    fill="<%= color.background.primary.hcValue %>"
    stroke="<%= color.border.primary.hcValue %>"
    stroke-width="<%= size.border.width.large.value %>"/>
    
  <path d="M383.344 145.635L199.071 193.156C197.013 193.686 194.828 193.378 192.998 192.298C191.167 191.218 189.841 189.455 189.31 187.397C188.779 185.339 189.088 183.154 190.168 181.323C191.248 179.493 193.011 178.166 195.069 177.635L379.342 130.115C381.399 129.586 383.582 129.896 385.411 130.976C387.241 132.057 388.566 133.819 389.096 135.876C389.627 137.933 389.319 140.116 388.24 141.946C387.162 143.776 385.401 145.103 383.344 145.635V145.635Z"
    fill="<%= color.background.secondary.hcValue %>"/>
  
  <path d="M422.109 163.571L205.825 219.347C203.767 219.877 201.583 219.569 199.752 218.489C197.921 217.409 196.595 215.646 196.064 213.588C195.533 211.529 195.842 209.345 196.922 207.514C198.002 205.683 199.765 204.357 201.823 203.826L418.107 148.051C420.165 147.52 422.35 147.829 424.18 148.909C426.011 149.989 427.338 151.752 427.868 153.81C428.399 155.868 428.091 158.053 427.011 159.883C425.931 161.714 424.168 163.04 422.109 163.571V163.571Z"
    fill="<%= color.background.secondary.hcValue %>"/>
  
  <path d="M413.613 263.009L229.34 310.529C228.32 310.792 227.26 310.852 226.218 310.704C225.175 310.557 224.173 310.206 223.266 309.671C222.36 309.137 221.567 308.429 220.935 307.588C220.302 306.747 219.841 305.789 219.578 304.77C219.315 303.751 219.256 302.69 219.403 301.648C219.55 300.606 219.901 299.603 220.436 298.697C220.971 297.79 221.679 296.998 222.52 296.365C223.361 295.733 224.318 295.272 225.337 295.009L409.61 247.488C410.629 247.226 411.69 247.166 412.732 247.313C413.774 247.461 414.777 247.812 415.684 248.346C416.59 248.881 417.382 249.589 418.015 250.43C418.648 251.271 419.109 252.228 419.372 253.248C419.634 254.267 419.694 255.327 419.547 256.37C419.4 257.412 419.049 258.415 418.514 259.321C417.979 260.227 417.271 261.02 416.43 261.652C415.589 262.285 414.632 262.746 413.613 263.009V263.009Z"
    fill="<%= color.background.secondary.hcValue %>"/>
  
  <path d="M452.378 280.945L236.094 336.72C235.075 336.983 234.014 337.042 232.972 336.895C231.93 336.748 230.927 336.397 230.02 335.862C229.114 335.327 228.322 334.619 227.689 333.778C227.056 332.937 226.595 331.98 226.332 330.961C226.069 329.942 226.01 328.881 226.157 327.839C226.304 326.797 226.655 325.794 227.19 324.887C227.725 323.981 228.433 323.189 229.274 322.556C230.115 321.923 231.072 321.462 232.091 321.199L448.375 265.424C450.433 264.893 452.618 265.202 454.449 266.282C456.279 267.362 457.606 269.125 458.137 271.183C458.667 273.241 458.359 275.426 457.279 277.257C456.199 279.087 454.436 280.414 452.378 280.945Z"
    fill="<%= color.background.secondary.hcValue %>"/>
  
  <path d="M443.881 380.382L259.608 427.903C257.55 428.432 255.367 428.122 253.537 427.042C251.708 425.962 250.382 424.199 249.852 422.142C249.321 420.085 249.629 417.901 250.708 416.071C251.787 414.241 253.549 412.914 255.605 412.382L439.878 364.862C441.937 364.331 444.121 364.64 445.952 365.72C447.783 366.8 449.109 368.563 449.64 370.621C450.171 372.679 449.862 374.864 448.782 376.694C447.702 378.525 445.939 379.852 443.881 380.382Z"
    fill="<%= color.background.secondary.hcValue %>"/>
  
  <path d="M482.646 398.318L266.362 454.093C265.342 454.357 264.281 454.418 263.238 454.271C262.195 454.124 261.192 453.774 260.285 453.239C259.377 452.704 258.584 451.996 257.951 451.155C257.318 450.314 256.856 449.356 256.594 448.336C256.331 447.316 256.271 446.255 256.419 445.212C256.566 444.17 256.918 443.166 257.453 442.26C257.989 441.353 258.698 440.561 259.539 439.928C260.381 439.295 261.34 438.835 262.359 438.573L478.643 382.798C480.702 382.267 482.886 382.575 484.717 383.655C486.548 384.736 487.874 386.498 488.405 388.557C488.936 390.615 488.627 392.799 487.547 394.63C486.467 396.461 484.704 397.787 482.646 398.318V398.318Z"
    fill="<%= color.background.secondary.hcValue %>"/>
  
  <path d="M167.613 241.881L102.401 258.698C101.414 258.951 100.367 258.803 99.4895 258.285C98.612 257.767 97.9757 256.923 97.7202 255.936L82.7507 197.888C82.4974 196.901 82.6459 195.854 83.1636 194.977C83.6813 194.099 84.5259 193.463 85.5122 193.208L150.725 176.391C151.711 176.137 152.758 176.286 153.636 176.803C154.513 177.321 155.15 178.166 155.405 179.152L170.375 237.2C170.628 238.187 170.48 239.234 169.962 240.112C169.444 240.989 168.599 241.625 167.613 241.881V241.881Z"
    fill="<%= color.background.tertiary.hcValue %>"/>
  
  <path d="M197.881 359.254L132.669 376.071C131.682 376.325 130.635 376.176 129.758 375.659C128.88 375.141 128.244 374.296 127.988 373.31L113.019 315.262C112.765 314.275 112.914 313.228 113.432 312.35C113.949 311.473 114.794 310.837 115.78 310.581L180.993 293.764C181.98 293.511 183.027 293.659 183.904 294.177C184.781 294.695 185.418 295.539 185.673 296.526L200.643 354.574C200.896 355.561 200.748 356.608 200.23 357.485C199.712 358.363 198.868 358.999 197.881 359.254V359.254Z"
    fill="<%= color.background.tertiary.hcValue %>"/>
  
  <path d="M228.15 476.628L162.937 493.445C161.95 493.698 160.903 493.55 160.026 493.032C159.148 492.514 158.512 491.67 158.257 490.683L143.287 432.635C143.034 431.648 143.182 430.601 143.7 429.724C144.218 428.846 145.062 428.21 146.049 427.954L211.261 411.137C212.248 410.884 213.295 411.033 214.172 411.55C215.05 412.068 215.686 412.913 215.942 413.899L230.911 471.947C231.164 472.934 231.016 473.981 230.498 474.858C229.981 475.736 229.136 476.372 228.15 476.628V476.628Z"
    fill="<%= color.background.tertiary.hcValue %>"/>
  
  <path d="M280.472 113.978L280.47 113.978C270.854 113.989 261.636 117.813 254.836 124.613C248.037 131.412 244.212 140.631 244.201 150.247V150.249L244.201 592.125L244.201 592.127C244.212 601.743 248.037 610.962 254.836 617.761C261.636 624.56 270.854 628.385 280.47 628.396H280.472H656.791H656.794C666.409 628.385 675.628 624.56 682.427 617.761C689.227 610.961 693.051 601.743 693.062 592.127V592.125V150.249V150.247C693.051 140.631 689.227 131.412 682.427 124.613C675.628 117.814 666.409 113.989 656.794 113.978L656.791 115.978V113.978L280.472 113.978Z"
    fill="<%= color.background.primary.value %>"
    stroke="<%= color.border.primary.value %>"
    stroke-width="<%= size.border.width.large.value %>"/>
  
  <path d="M696.326 694.012C744.844 694.012 784.176 654.68 784.176 606.162C784.176 557.643 744.844 518.311 696.326 518.311C647.808 518.311 608.476 557.643 608.476 606.162C608.476 654.68 647.808 694.012 696.326 694.012Z"
    fill="<%= color.brand.primary.base.hcValue %>"/>
  
  <path d="M738.341 594.703H707.784V564.146C707.784 561.107 706.577 558.193 704.428 556.044C702.279 553.895 699.365 552.688 696.326 552.688C693.287 552.688 690.372 553.895 688.223 556.044C686.074 558.193 684.867 561.107 684.867 564.146V594.703H654.31C651.271 594.703 648.357 595.91 646.208 598.059C644.059 600.208 642.852 603.123 642.852 606.162C642.852 609.201 644.059 612.115 646.208 614.264C648.357 616.413 651.271 617.62 654.31 617.62H684.867V648.177C684.867 651.216 686.074 654.131 688.223 656.28C690.372 658.429 693.287 659.636 696.326 659.636C699.365 659.636 702.279 658.429 704.428 656.28C706.577 654.131 707.784 651.216 707.784 648.177V617.62H738.341C741.38 617.62 744.295 616.413 746.444 614.264C748.593 612.115 749.8 609.201 749.8 606.162C749.8 603.123 748.593 600.208 746.444 598.059C744.295 595.91 741.38 594.703 738.341 594.703V594.703Z"
    fill="<%= color.background.primary.hcValue %>"/>
  
  <path d="M600.155 358.788H409.853C408.8 358.789 407.757 358.582 406.784 358.18C405.81 357.778 404.926 357.188 404.181 356.443C403.435 355.699 402.844 354.815 402.441 353.842C402.038 352.869 401.83 351.827 401.83 350.773C401.83 349.72 402.038 348.677 402.441 347.704C402.844 346.732 403.435 345.848 404.181 345.103C404.926 344.359 405.81 343.769 406.784 343.367C407.757 342.965 408.8 342.758 409.853 342.759H600.155C602.279 342.762 604.315 343.607 605.816 345.11C607.317 346.612 608.16 348.649 608.16 350.773C608.16 352.897 607.317 354.934 605.816 356.437C604.315 357.94 602.279 358.785 600.155 358.788V358.788Z"
    fill="<%= color.background.secondary.hcValue %>"/>
  
  <path d="M633.213 385.835H409.853C408.8 385.836 407.757 385.63 406.784 385.228C405.81 384.825 404.926 384.235 404.181 383.491C403.435 382.747 402.844 381.863 402.441 380.89C402.038 379.917 401.83 378.874 401.83 377.821C401.83 376.768 402.038 375.725 402.441 374.752C402.844 373.779 403.435 372.895 404.181 372.151C404.926 371.407 405.81 370.817 406.784 370.414C407.757 370.012 408.8 369.806 409.853 369.807H633.213C635.339 369.807 637.377 370.651 638.88 372.154C640.383 373.657 641.227 375.696 641.227 377.821C641.227 379.946 640.383 381.985 638.88 383.488C637.377 384.991 635.339 385.835 633.213 385.835Z"
    fill="<%= color.background.secondary.hcValue %>"/>
  
  <path d="M600.155 480.001H409.853C408.8 480.002 407.757 479.796 406.784 479.394C405.81 478.991 404.926 478.401 404.181 477.657C403.435 476.913 402.844 476.029 402.441 475.056C402.038 474.083 401.83 473.04 401.83 471.987C401.83 470.934 402.038 469.891 402.441 468.918C402.844 467.945 403.435 467.061 404.181 466.317C404.926 465.573 405.81 464.983 406.784 464.58C407.757 464.178 408.8 463.972 409.853 463.973H600.155C602.28 463.973 604.319 464.817 605.822 466.32C607.325 467.823 608.169 469.862 608.169 471.987C608.169 474.112 607.325 476.151 605.822 477.654C604.319 479.157 602.28 480.001 600.155 480.001V480.001Z"
    fill="<%= color.background.secondary.hcValue %>"/>
  
  <path d="M633.213 507.049H409.853C408.8 507.05 407.757 506.844 406.784 506.441C405.81 506.039 404.926 505.449 404.181 504.705C403.435 503.96 402.844 503.076 402.441 502.104C402.038 501.131 401.83 500.088 401.83 499.035C401.83 497.981 402.038 496.939 402.441 495.966C402.844 494.993 403.435 494.109 404.181 493.365C404.926 492.62 405.81 492.03 406.784 491.628C407.757 491.226 408.8 491.019 409.853 491.021H633.213C634.266 491.019 635.309 491.226 636.283 491.628C637.256 492.03 638.141 492.62 638.886 493.365C639.631 494.109 640.222 494.993 640.625 495.966C641.029 496.939 641.236 497.981 641.236 499.035C641.236 500.088 641.029 501.131 640.625 502.104C640.222 503.076 639.631 503.96 638.886 504.705C638.141 505.449 637.256 506.039 636.283 506.441C635.309 506.844 634.266 507.05 633.213 507.049Z"
    fill="<%= color.background.secondary.hcValue %>"/>
  
  <path d="M367.225 398.114H299.879C298.86 398.113 297.883 397.707 297.163 396.987C296.442 396.267 296.037 395.29 296.036 394.271V334.324C296.037 333.305 296.442 332.328 297.163 331.608C297.883 330.887 298.86 330.482 299.879 330.481H367.225C368.243 330.482 369.22 330.887 369.941 331.608C370.661 332.328 371.066 333.305 371.067 334.324V394.271C371.066 395.29 370.661 396.267 369.941 396.987C369.22 397.707 368.243 398.113 367.225 398.114V398.114Z"
    fill="<%= color.background.tertiary.hcValue %>"/>
  
  <path d="M367.225 519.327H299.879C298.86 519.326 297.883 518.921 297.163 518.2C296.442 517.48 296.037 516.503 296.036 515.484V455.537C296.037 454.518 296.442 453.542 297.163 452.821C297.883 452.101 298.86 451.695 299.879 451.694H367.225C368.243 451.695 369.22 452.101 369.941 452.821C370.661 453.542 371.066 454.518 371.067 455.537V515.484C371.066 516.503 370.661 517.48 369.941 518.2C369.22 518.921 368.243 519.326 367.225 519.327V519.327Z"
    fill="<%= color.background.tertiary.hcValue %>"/>
  
  <path d="M600.366 223.853H460.064C457.939 223.853 455.901 223.009 454.398 221.506C452.895 220.003 452.05 217.965 452.05 215.839C452.05 213.714 452.895 211.675 454.398 210.172C455.901 208.669 457.939 207.825 460.064 207.825H600.366C602.492 207.825 604.53 208.669 606.033 210.172C607.536 211.675 608.38 213.714 608.38 215.839C608.38 217.965 607.536 220.003 606.033 221.506C604.53 223.009 602.492 223.853 600.366 223.853Z"
    fill="<%= color.background.secondary.hcValue %>"/>
  
  <path d="M633.424 250.901H460.064C459.012 250.901 457.97 250.693 456.998 250.291C456.025 249.888 455.142 249.298 454.398 248.553C453.653 247.809 453.063 246.926 452.66 245.954C452.258 244.981 452.05 243.939 452.05 242.887C452.05 241.834 452.258 240.792 452.66 239.82C453.063 238.847 453.653 237.964 454.398 237.22C455.142 236.476 456.025 235.885 456.998 235.483C457.97 235.08 459.012 234.873 460.064 234.873H633.424C635.55 234.873 637.588 235.717 639.091 237.22C640.594 238.723 641.438 240.761 641.438 242.887C641.438 245.012 640.594 247.051 639.091 248.553C637.588 250.056 635.55 250.901 633.424 250.901V250.901Z"
    fill="<%= color.background.secondary.hcValue %>"/>
  
  <path d="M429.013 283.679H299.667C298.649 283.678 297.672 283.273 296.951 282.552C296.231 281.832 295.826 280.855 295.825 279.836V178.889C295.826 177.87 296.231 176.894 296.951 176.173C297.672 175.453 298.649 175.048 299.667 175.046H429.013C430.032 175.048 431.009 175.453 431.729 176.173C432.45 176.894 432.855 177.87 432.856 178.889V279.836C432.855 280.855 432.45 281.832 431.729 282.552C431.009 283.273 430.032 283.678 429.013 283.679V283.679Z"
    fill="<%= color.brand.secondary.base.hcValue %>"/>
</svg>
