<svg width="100" height="100" viewBox="0 0 40 40" fill="none" xmlns="http://www.w3.org/2000/svg">
  <path d="M5.03278 19C5.54736 11.182 12.0517 5 20 5C27.9482 5 34.4526 11.182 34.9672 19H5.03278Z" fill="<%= color.brand.primary['0'].value %>"/>
  <path d="M5 20C5 21.0274 5.10329 22.0307 5.30005 23H34.6999C34.8967 22.0307 35 21.0274 35 20H5Z" fill="<%= color.brand.primary['1'].value %>"/>
  <path d="M33.7518 26C34.0333 25.3557 34.2709 24.6877 34.4607 24H5.53918C5.729 24.6877 5.96656 25.3557 6.24808 26H33.7518Z" fill="<%= color.brand.primary['2'].value %>"/>
  <path d="M6.73004 27C7.10083 27.7015 7.52561 28.37 7.99885 29H32.001C32.4743 28.37 32.8991 27.7015 33.2699 27H6.73004Z" fill="<%= color.brand.primary['3'].value %>"/>
  <path d="M9.80185 31C9.45912 30.6821 9.13127 30.3484 8.81946 30H31.1805C30.8687 30.3484 30.5409 30.6821 30.1981 31H9.80185Z" fill="<%= color.brand.primary['4'].value %>"/>
</svg>
