<svg width="100" height="100" viewBox="0 0 40 40" fill="none" xmlns="http://www.w3.org/2000/svg">
  <path d="M33.7519 26C34.0334 25.3557 34.271 24.6877 34.4608 24H5.53923C5.72905 24.6877 5.96661 25.3557 6.24813 26H33.7519ZM6.73009 27C7.10088 27.7015 7.52566 28.37 7.9989 29H32.0011C32.4743 28.37 32.8991 27.7015 33.2699 27H6.73009ZM9.80186 31C9.45913 30.6821 9.13128 30.3484 8.81947 30H31.1805C30.8687 30.3484 30.5409 30.6821 30.1981 31H9.80186ZM5 20C5 21.0274 5.10329 22.0307 5.30005 23H34.6999C34.8967 22.0307 35 21.0274 35 20H5ZM5.0328 19C5.54739 11.182 12.0518 5 20 5C27.9482 5 34.4526 11.182 34.9672 19H5.0328Z" fill="<%= color.brand.primary.base.value %>"/>
</svg>
