<svg xmlns="http://www.w3.org/2000/svg" viewBox="0 0 622.3 747.71"><defs>
  <style>
    .cls-2 { fill: <%= color.core.teal['200'].value %>; }
    .cls-3 { fill: <%= color.core.teal['300'].value %>; }
    .cls-4, .cls-6, .cls-7 {
      fill: none;
      stroke-linecap: round;
      stroke-linejoin: round;
    }
    .cls-4 {
      stroke: <%= color.core.purple['500'].value %>;
      stroke-width: 11px;
    }
    .cls-5 { fill: <%= color.core.purple['500'].value %>; }
    .cls-6, .cls-7 {
      stroke: <%= color.core.teal['600'].value %>;
      stroke-width: 5px;
    }
    .cls-7 {
      stroke-dasharray:16.09 16.09;
    }
  </style>
  </defs>

  <polygon class="cls-2" points="79.5 694.72 0 593.72 0 153.72 79.5 254.72 79.5 694.72"/>
  <polygon class="cls-3" points="526.5 614.22 79.5 695.22 79.5 255.22 526.5 174.22 526.5 614.22"/>
  <polygon class="cls-2" points="618.65 655.76 526.5 614.22 526.5 174.22 618.65 215.76 618.65 655.76"/>
  <line class="cls-4" x1="393.13" y1="454.45" x2="466.74" y2="528.07"/>
  <line class="cls-4" x1="393.13" y1="528.07" x2="466.74" y2="454.45"/>
  <path class="cls-5" d="M291.69,0c-48.09,0-96.7,46.78,0,172C388.38,46.78,339.77,0,291.69,0Zm0,88.07a32.8,32.8,0,1,1,32.79-32.8A32.79,32.79,0,0,1,291.69,88.07Z"/>
  <path class="cls-6" d="M132,245.71c-1.4,2.26-2.73,4.57-4,6.92"/>
  <path class="cls-7" stroke-dasharray="15" d="M121,267.13c-11.54,27.46-16.08,58.34-16.08,86.17,0,142.57,34.14,242.47,128.52,242.47,83.17,0,100.69-81.87,135.77-101.3"/>
  <path class="cls-6" d="M376.65,491.41a30.26,30.26,0,0,1,7.91-1.05"/>
</svg>